<?xml version="1.0" encoding="UTF-8" standalone="no"?>
<!DOCTYPE svg PUBLIC "-//W3C//DTD SVG 1.1//EN" "http://www.w3.org/Graphics/SVG/1.1/DTD/svg11.dtd">
<svg width="100%" height="100%" viewBox="0 0 28 28" version="1.1" xmlns="http://www.w3.org/2000/svg" xmlns:xlink="http://www.w3.org/1999/xlink" xml:space="preserve" xmlns:serif="http://www.serif.com/" style="fill-rule:evenodd;clip-rule:evenodd;stroke-linejoin:round;stroke-miterlimit:2;">
    <g transform="matrix(1,0,0,1,17.24,13.322)">
        <path d="M0,0.972L-2.243,0.972L-2.243,8.979L-5.574,8.979L-5.574,0.972L-7.156,0.972L-7.156,-1.858L-5.574,-1.858L-5.574,-3.687C-5.574,-5 -4.95,-7.047 -2.214,-7.047L0.251,-7.039L0.251,-4.291L-1.537,-4.291C-1.829,-4.291 -2.243,-4.146 -2.243,-3.52L-2.243,-1.857L0.291,-1.857L0,0.972ZM-3.432,-13.322C-11.044,-13.322 -17.24,-7.128 -17.24,0.486C-17.24,8.099 -11.044,14.294 -3.432,14.294C4.18,14.294 10.377,8.099 10.377,0.486C10.377,-7.128 4.183,-13.322 -3.432,-13.322" style="fill:white;fill-rule:nonzero;"/>
    </g>
</svg>
