<?xml version="1.0" encoding="UTF-8" standalone="no"?>
<!DOCTYPE svg PUBLIC "-//W3C//DTD SVG 1.1//EN" "http://www.w3.org/Graphics/SVG/1.1/DTD/svg11.dtd">
<svg width="100%" height="100%" viewBox="0 0 29 28" version="1.1" xmlns="http://www.w3.org/2000/svg" xmlns:xlink="http://www.w3.org/1999/xlink" xml:space="preserve" xmlns:serif="http://www.serif.com/" style="fill-rule:evenodd;clip-rule:evenodd;stroke-linejoin:round;stroke-miterlimit:2;">
    <g transform="matrix(1,0,0,1,20.246,17.205)">
        <path d="M0,-6.41C0.009,-6.272 0.011,-6.132 0.011,-5.991C0.011,-1.733 -3.229,3.176 -9.158,3.176C-10.979,3.176 -12.673,2.645 -14.1,1.729C-13.844,1.759 -13.59,1.775 -13.329,1.775C-11.818,1.775 -10.431,1.259 -9.326,0.394C-10.738,0.369 -11.927,-0.563 -12.336,-1.845C-12.139,-1.806 -11.938,-1.786 -11.729,-1.786C-11.438,-1.786 -11.152,-1.825 -10.883,-1.897C-12.357,-2.191 -13.468,-3.496 -13.468,-5.057L-13.468,-5.098C-13.031,-4.858 -12.534,-4.713 -12.006,-4.695C-12.872,-5.272 -13.441,-6.259 -13.441,-7.377C-13.441,-7.969 -13.282,-8.521 -13.005,-8.998C-11.415,-7.048 -9.039,-5.764 -6.363,-5.629C-6.418,-5.867 -6.444,-6.112 -6.444,-6.364C-6.444,-8.144 -5.003,-9.589 -3.224,-9.589C-2.298,-9.589 -1.461,-9.195 -0.873,-8.568C-0.139,-8.714 0.55,-8.981 1.174,-9.353C0.932,-8.598 0.422,-7.969 -0.245,-7.568C0.41,-7.646 1.03,-7.819 1.606,-8.076C1.178,-7.431 0.629,-6.862 0,-6.41M-6.247,-17.205C-13.965,-17.205 -20.246,-10.924 -20.246,-3.206C-20.246,4.514 -13.965,10.795 -6.247,10.795C1.473,10.795 7.755,4.514 7.755,-3.206C7.755,-10.924 1.473,-17.205 -6.247,-17.205" style="fill:white;fill-rule:nonzero;"/>
    </g>
</svg>
