<?xml version="1.0" encoding="UTF-8" standalone="no"?>
<!DOCTYPE svg PUBLIC "-//W3C//DTD SVG 1.1//EN" "http://www.w3.org/Graphics/SVG/1.1/DTD/svg11.dtd">
<svg width="100%" height="100%" viewBox="0 0 656 503" version="1.1" xmlns="http://www.w3.org/2000/svg" xmlns:xlink="http://www.w3.org/1999/xlink" xml:space="preserve" xmlns:serif="http://www.serif.com/" style="fill-rule:evenodd;clip-rule:evenodd;stroke-linejoin:round;stroke-miterlimit:2;">
    <g id="Artboard1" transform="matrix(0.495834,0,0,0.280268,0,0)">
        <rect x="0" y="0" width="1322.03" height="1791.23" style="fill:none;"/>
        <g transform="matrix(2.0168,0,0,3.56802,1566.31,-2591.87)">
            <g>
                <g transform="matrix(1,0,0,0.999998,-776.631,726.417)">
                    <path d="M447.065,458.963C407.995,377.123 372.262,317.176 324.826,266.845C301.764,239.538 275.286,217.524 245.432,200.87C245.364,200.832 245.296,200.79 245.228,200.751L245.228,200.755C221.356,187.466 195.333,177.59 167.171,171.179C104.487,156.802 48.61,135.178 0,106.836L0,0.352L4.813,0.352C63.746,39.218 127.549,60.325 177.32,71.741C279.62,95.033 360.129,159.149 415.986,260.336L404.609,0.352L447.065,0.352L447.065,458.963Z" style="fill:rgb(240,126,47);"/>
                </g>
                <g transform="matrix(1,0,0,0.999998,-776.631,726.065)">
                    <path d="M447.065,0.352L471.953,0.352L476.655,107.804L528.205,0.352L619.717,0.352C594.619,32.295 572.94,68.374 554.711,108.535L554.701,108.526C500.295,220.73 474.662,343.184 461.156,489.014C456.402,478.675 451.72,468.664 447.065,458.963L447.065,0.352Z" style="fill:rgb(246,185,70);"/>
                </g>
            </g>
        </g>
    </g>
</svg>
